<svg id="Layer_2" data-name="Layer 2" xmlns="http://www.w3.org/2000/svg" width="80" height="80" viewBox="0 0 80 80">
  <g id="BTT_Questions_Expanded_" data-name="BTT Questions (Expanded)">
    <rect id="Rectangle_25567" data-name="Rectangle 25567" width="80" height="80" fill="#6a707e" opacity="0"/>
    <path id="Path_2285" data-name="Path 2285" d="M36,6a4,4,0,0,1,2,.52l24,14a4.3,4.3,0,0,1,2,3.74V51.78a4.3,4.3,0,0,1-2,3.74l-24,14a3.8,3.8,0,0,1-3.84,0l-24-14a4.3,4.3,0,0,1-2-3.74V24.22a4.3,4.3,0,0,1,2-3.74l24-14A4,4,0,0,1,36,6m0-4a7.86,7.86,0,0,0-4,1.06l-24,14a8.32,8.32,0,0,0-4,7.2V51.78a8.32,8.32,0,0,0,4,7.2l24,14a7.78,7.78,0,0,0,7.84,0l24-14a8.32,8.32,0,0,0,4-7.2V24.22a8.32,8.32,0,0,0-4-7.2l-24-14A7.86,7.86,0,0,0,36,2Z" transform="translate(4 2)" fill="#6a707e"/>
    <path id="Icon_material-headset-mic" data-name="Icon material-headset-mic" d="M26.55,12a13.12,13.12,0,0,0-13.1,13.08v10.2a4.38,4.38,0,0,0,4.36,4.36h4.38V28H16.37V25.08a10.18,10.18,0,1,1,20.36,0V28H30.91V39.64h5.82v1.44H26.55V44h8.72a4.38,4.38,0,0,0,4.38-4.36h0V25.08A13.12,13.12,0,0,0,26.55,12Z" transform="translate(13.45 12)" fill="#6a707e"/>
  </g>
</svg>
